<svg style="width:256px;height:256px"
version="1.0" xmlns="http://www.w3.org/2000/svg" viewBox="0 0 256.000000 256.000000" preserveAspectRatio="xMidYMid meet">
    <g fill="#c10007"
    transform="translate(0.000000,256.000000) scale(0.100000,-0.100000)"  stroke="none">
        <path d="M263 2297 c-90 -90 -103 -107 -103 -137 0 -30 13 -47 103 -137 88
        -88 108 -103 135 -103 69 0 105 78 61 134 l-21 26 850 -2 c841 -3 851 -3 878
        -24 67 -49 69 -58 69 -253 l0 -178 -27 -35 c-15 -20 -41 -42 -58 -50 -20 -9
        -28 -18 -24 -28 3 -8 11 -42 17 -75 6 -33 12 -62 13 -64 2 -1 27 8 57 22 66
        30 118 81 155 150 27 52 27 53 27 257 l0 205 -34 63 c-38 70 -69 100 -145 140
        l-51 27 -863 3 -863 3 20 26 c44 55 8 133 -61 133 -27 0 -47 -15 -135 -103z"/>
        <path d="M1296 1967 c-20 -19 -51 -67 -70 -108 -35 -73 -35 -76 -29 -169 l6
        -95 184 -1 185 0 -7 45 c-19 130 -97 299 -155 339 -45 30 -72 28 -114 -11z"/>
        <path d="M1120 1957 c-36 -13 -74 -28 -84 -34 -19 -10 -18 -11 2 -17 11 -4 36
        -18 56 -31 l35 -24 34 65 c19 35 32 64 28 64 -3 0 -35 -11 -71 -23z"/>
        <path d="M1551 1928 c34 -62 84 -212 94 -283 4 -27 12 -55 16 -61 5 -6 33 -15
        61 -18 71 -10 222 -60 285 -95 l53 -29 -6 26 c-35 146 -154 313 -289 405 -55
        38 -204 106 -232 107 -6 0 1 -23 18 -52z"/>
        <path d="M255 1826 c-72 -33 -95 -83 -95 -212 l0 -94 481 0 481 0 -4 109 c-3
        118 -12 141 -72 185 -26 20 -41 21 -394 23 -291 2 -373 0 -397 -11z m374 -80
        c19 -22 10 -126 -11 -140 -33 -20 -53 4 -56 68 -3 61 8 86 38 86 10 0 23 -6
        29 -14z m160 0 c19 -22 10 -126 -11 -140 -33 -20 -53 4 -56 68 -3 61 8 86 38
        86 10 0 23 -6 29 -14z m160 0 c19 -22 10 -126 -11 -140 -33 -20 -53 4 -56 68
        -3 61 8 86 38 86 10 0 23 -6 29 -14z"/>
        <path d="M1213 1514 c-10 -4 -13 -61 -13 -235 l0 -229 26 -6 c33 -8 353 1 362
        11 9 9 9 441 0 450 -9 9 -358 17 -375 9z"/>
        <path d="M1675 1280 l0 -212 45 7 c174 26 360 132 360 205 0 73 -186 179 -360
        205 l-45 7 0 -212z"/>
        <path d="M160 1280 l0 -160 480 0 480 0 0 160 0 160 -480 0 -480 0 0 -160z
        m469 66 c19 -22 10 -126 -11 -140 -33 -20 -53 4 -56 68 -3 61 8 86 38 86 10 0
        23 -6 29 -14z m160 0 c19 -22 10 -126 -11 -140 -33 -20 -53 4 -56 68 -3 61 8
        86 38 86 10 0 23 -6 29 -14z m160 0 c19 -22 10 -126 -11 -140 -33 -20 -53 4
        -56 68 -3 61 8 86 38 86 10 0 23 -6 29 -14z"/>
        <path d="M2143 1128 c-6 -35 -14 -70 -17 -78 -4 -10 3 -19 24 -28 17 -8 43
        -30 58 -50 l27 -35 0 -178 c0 -195 -2 -204 -69 -253 -27 -21 -37 -21 -878 -24
        l-850 -2 21 26 c44 56 8 134 -61 134 -27 0 -47 -15 -135 -103 -138 -138 -138
        -136 0 -274 88 -88 108 -103 135 -103 69 0 105 78 61 133 l-20 26 863 3 863 3
        51 27 c76 40 107 70 145 140 l34 63 0 205 c0 204 0 205 -27 257 -44 82 -113
        142 -193 167 -19 5 -22 0 -32 -56z"/>
        <path d="M2005 1088 c-59 -33 -209 -83 -280 -93 -27 -4 -55 -12 -61 -16 -6 -5
        -15 -33 -18 -61 -10 -71 -60 -222 -95 -285 -17 -30 -24 -53 -18 -53 28 1 177
        69 233 107 72 49 166 149 212 226 30 50 88 196 80 201 -2 1 -25 -10 -53 -26z"/>
        <path d="M162 931 c3 -118 12 -141 72 -185 27 -20 39 -21 406 -21 367 0 379 1
        406 21 60 44 69 67 72 185 l4 109 -482 0 -482 0 4 -109z m467 15 c19 -22 10
        -126 -11 -140 -33 -20 -53 4 -56 68 -3 61 8 86 38 86 10 0 23 -6 29 -14z m160
        0 c19 -22 10 -126 -11 -140 -33 -20 -53 4 -56 68 -3 61 8 86 38 86 10 0 23 -6
        29 -14z m160 0 c19 -22 10 -126 -11 -140 -33 -20 -53 4 -56 68 -3 61 8 86 38
        86 10 0 23 -6 29 -14z"/>
        <path d="M1197 870 l-7 -95 41 -82 c41 -85 87 -133 126 -133 36 0 85 44 120
        105 36 66 77 184 88 255 l7 46 -185 -1 -184 0 -6 -95z"/>
        <path d="M1115 700 c-4 -6 -27 -21 -52 -34 l-46 -23 64 -25 c35 -14 76 -28 90
        -31 l27 -7 -35 65 c-36 69 -38 71 -48 55z"/>
    </g>
</svg>